<svg width="200" height="200" viewBox="0 0 200 200" fill="none" xmlns="http://www.w3.org/2000/svg">
<path fill-rule="evenodd" clip-rule="evenodd" d="M99.622 93.8533C108.965 93.8533 113.994 88.9915 113.994 82.2335C113.994 75.0715 108.965 70.6135 99.622 70.6135H88.1325C87.0945 70.6135 86.2568 71.4268 86.2568 72.4304V92.0365C86.2568 93.0401 87.0945 93.8533 88.1325 93.8533H99.622ZM93.1441 112.229H88.1359C87.0982 112.229 86.2602 113.042 86.2602 114.045V146.083C86.2602 147.086 85.4207 147.9 84.3827 147.9H65.4257C64.3895 147.9 63.55 147.086 63.55 146.083V53.9169C63.55 52.9133 64.3895 52.1 65.4257 52.1H103.937C124.061 52.1 136.997 65.0737 136.997 82.096C136.997 94.3749 130.172 103.865 118.84 108.399C117.806 108.814 117.324 109.966 117.839 110.93L136.157 145.248C136.804 146.458 135.896 147.9 134.492 147.9H113.725C113.013 147.9 112.36 147.509 112.044 146.891L94.825 113.238C94.5082 112.62 93.8575 112.229 93.1441 112.229Z" fill="white"/>
<path fill-rule="evenodd" clip-rule="evenodd" d="M0.540853 135.436L5.63451 130.341C6.35688 129.62 7.52626 129.62 8.24863 130.341L24.8015 146.895C25.1484 147.242 25.3423 147.711 25.3423 148.201V172.809C25.3423 173.829 26.1696 174.656 27.1908 174.656H51.7972C52.2874 174.656 52.7579 174.85 53.1036 175.197L69.6577 191.751C70.3789 192.472 70.3789 193.643 69.6577 194.364L64.5628 199.458C64.2171 199.805 63.7466 199.999 63.2576 199.999H1.8473C0.827333 199.999 0 199.172 0 198.152V136.742C0 136.252 0.195102 135.783 0.540853 135.436Z" fill="#F7DA61"/>
<path fill-rule="evenodd" clip-rule="evenodd" d="M27.1909 174.658C26.6809 174.658 26.219 174.452 25.8844 174.117L0.540863 199.459C0.875501 199.794 1.33733 200 1.84854 200H63.2576C63.7466 200 64.2171 199.806 64.5641 199.459L69.6577 194.364C70.3801 193.643 70.3801 192.474 69.6577 191.753L53.1037 175.199C52.7579 174.852 52.2874 174.658 51.7984 174.658H27.1909Z" fill="#EEAD09"/>
<path fill-rule="evenodd" clip-rule="evenodd" d="M135.434 0.540868L130.339 5.63466C129.618 6.35706 129.618 7.52647 130.339 8.24763L146.894 24.8022C147.241 25.1491 147.71 25.343 148.2 25.343H172.808C173.828 25.343 174.656 26.1704 174.656 27.1916V51.7999C174.656 52.2889 174.85 52.7594 175.197 53.1051L191.75 69.6597C192.471 70.3821 193.642 70.3821 194.364 69.6597L199.458 64.5646C199.804 64.2176 199.999 63.7484 199.999 63.2594V1.84735C199.999 0.826121 199.171 0 198.151 0H136.741C136.25 0 135.78 0.195108 135.434 0.540868Z" fill="#F7DA61"/>
<path fill-rule="evenodd" clip-rule="evenodd" d="M199.456 0.540894L174.113 25.8839C174.447 26.2186 174.654 26.6804 174.654 27.1916V51.7999C174.654 52.2889 174.848 52.7594 175.196 53.1051L191.75 69.6597C192.471 70.3821 193.64 70.3821 194.363 69.6597L199.456 64.5646C199.803 64.2176 199.997 63.7484 199.997 63.2594V1.84737C199.997 1.33738 199.791 0.87554 199.456 0.540894Z" fill="#EEAD09"/>
</svg>
